<?xml version="1.0" encoding="UTF-8"?>
<!DOCTYPE svg PUBLIC "-//W3C//DTD SVG 1.1//EN" "http://www.w3.org/Graphics/SVG/1.1/DTD/svg11.dtd">
<svg xmlns="http://www.w3.org/2000/svg" version="1.1" width="512px" height="512px" style="shape-rendering:geometricPrecision; text-rendering:geometricPrecision; image-rendering:optimizeQuality; fill-rule:evenodd; clip-rule:evenodd" xmlns:xlink="http://www.w3.org/1999/xlink">
<g><path style="opacity:0" d="M 442.5,48.5 C 436.869,43.3697 431.369,38.0363 426,32.5C 422.902,36.1074 419.402,39.1074 415.5,41.5C 418.511,37.6558 422.011,34.3224 426,31.5C 432.384,36.3824 437.884,42.0491 442.5,48.5 Z"/></g>
<g><path style="opacity:1" fill="#ffffff" d="M 442.5,48.5 C 444.167,49.5 445.5,50.8333 446.5,52.5C 439.89,60.7787 432.556,68.4454 424.5,75.5C 413.5,86.8333 402.5,98.1667 391.5,109.5C 383.5,116.833 375.833,124.5 368.5,132.5C 356.833,143.5 345.5,154.833 334.5,166.5C 326.548,173.785 318.881,181.452 311.5,189.5C 299.535,200.965 287.702,212.631 276,224.5C 271.896,241.97 261.396,247.47 244.5,241C 234.725,232.39 232.892,222.223 239,210.5C 242.878,206.144 247.711,203.811 253.5,203.5C 307.75,150.751 361.583,97.4174 415,43.5C 415.464,42.9056 415.631,42.2389 415.5,41.5C 419.402,39.1074 422.902,36.1074 426,32.5C 431.369,38.0363 436.869,43.3697 442.5,48.5 Z"/></g>
<g><path style="opacity:1" fill="#ffffff" d="M 446.5,52.5 C 484.023,94.6914 505.69,144.025 511.5,200.5C 511.5,215.833 511.5,231.167 511.5,246.5C 499.445,342.369 450.445,412.202 364.5,456C 329.922,471.894 293.588,479.727 255.5,479.5C 255.5,469.167 255.5,458.833 255.5,448.5C 336.413,446.138 399.58,411.805 445,345.5C 486.079,277.408 491.746,206.408 462,132.5C 452.781,111.157 440.281,92.1572 424.5,75.5C 432.556,68.4454 439.89,60.7787 446.5,52.5 Z"/></g>
<g><path style="opacity:1" fill="#ffffff" d="M 391.5,109.5 C 435.747,168.145 443.58,231.478 415,299.5C 381.376,363.56 328.21,396.893 255.5,399.5C 255.5,389.167 255.5,378.833 255.5,368.5C 309.388,366.815 350.888,343.482 380,298.5C 403.55,256.428 406.883,212.762 390,167.5C 384.556,154.604 377.39,142.937 368.5,132.5C 375.833,124.5 383.5,116.833 391.5,109.5 Z"/></g>
<g><path style="opacity:0" d="M 415.5,41.5 C 415.631,42.2389 415.464,42.9056 415,43.5C 361.583,97.4174 307.75,150.751 253.5,203.5C 307.167,149.167 361.167,95.1667 415.5,41.5 Z"/></g>
<g><path style="opacity:1" fill="#ffffff" d="M 334.5,166.5 C 352.725,194.925 356.558,225.259 346,257.5C 329.024,297.294 298.857,317.961 255.5,319.5C 255.5,309.167 255.5,298.833 255.5,288.5C 287.853,286.646 309.019,270.313 319,239.5C 322.914,221.81 320.414,205.144 311.5,189.5C 318.881,181.452 326.548,173.785 334.5,166.5 Z"/></g>
<g><path style="opacity:0.8" fill="#ffffff" d="M -0.5,222.5 C 9.74914,222.181 19.9158,222.514 30,223.5C 32.7402,302.831 66.2402,365.331 130.5,411C 168.351,436.048 210.017,448.548 255.5,448.5C 255.5,458.833 255.5,469.167 255.5,479.5C 155.677,476.359 80.5098,432.026 30,346.5C 13.3053,315.029 3.1386,281.696 -0.5,246.5C -0.5,238.5 -0.5,230.5 -0.5,222.5 Z"/></g>
<g><path style="opacity:0.8" fill="#ffffff" d="M 255.5,368.5 C 255.5,378.833 255.5,389.167 255.5,399.5C 189.789,397.74 139.289,369.407 104,314.5C 87.1676,286.165 79.0009,255.498 79.5,222.5C 89.7491,222.181 99.9158,222.514 110,223.5C 112.159,277.342 135.659,318.842 180.5,348C 203.613,361.647 228.613,368.481 255.5,368.5 Z"/></g>
<g><path style="opacity:0.8" fill="#ffffff" d="M 255.5,288.5 C 255.5,298.833 255.5,309.167 255.5,319.5C 212.143,317.961 181.976,297.294 165,257.5C 160.785,246.207 158.951,234.541 159.5,222.5C 169.506,222.334 179.506,222.5 189.5,223C 193.442,263.109 215.442,284.942 255.5,288.5 Z"/></g>
</svg>
